<svg xmlns="http://www.w3.org/2000/svg" viewBox="0 0 863.14 578.74"><title>12Asset 11</title><g id="Layer_2" data-name="Layer 2"><g id="Layer_1-2" data-name="Layer 1"><path d="M220.92,357.54c0-10.07-.09-18.38.11-26.68,0-1.15,1.38-2.4,2.34-3.38,2.86-2.92,3.16-6.61.61-9.33a6.61,6.61,0,0,0-9.38.06c-2.43,2.63-2,6.37.67,9.4a9.55,9.55,0,0,1,2.46,5.36c.27,7.6.12,15.22.12,23.07H175.12c0-8.7-.08-17.29.11-25.88,0-1,1.53-1.91,2.43-2.79,2.9-2.87,3.1-6.56.44-9.31a6.54,6.54,0,0,0-9-.13c-2.69,2.63-2.92,6.92.26,9.18,2.71,1.94,2.75,4.19,2.73,6.87,0,7.31,0,14.62,0,23.26-2.68-1.4-4.76-2-6.11-3.28q-12-11.68-23.64-23.72c-1.22-1.26-2.29-3.62-2-5.21,2.68-14.85-2.93-25.95-14.62-34.78-1.43-1.08-2-3.85-2.2-5.91-.34-4-2.76-7-6.4-6.84-3.91.21-6.1,2.45-6.27,6.38s2.66,6.13,6.65,6.54a14.22,14.22,0,0,1,6.31,2.5c11.28,7.79,15.7,18.44,13.6,32.12-.37,2.39,1.28,5.81,3.1,7.69,7.26,7.55,15,14.67,23.54,23-2.86.33-4,.58-5.22.59-7,0-14,.25-21-.11-2.74-.14-5.36-1.87-8.13-2.41-13.16-2.55-18.26-15.05-27.71-22.15a10.42,10.42,0,0,0-5.23-2.08c-4.65-.29-9.33-.06-14-.1-3.25,0-6.3.75-8.81-3.13-2-3.05-6-2.56-8.68.45s-2.45,6.26.4,8.9,6.71,2.77,8.75-.43,4.3-2.36,6.88-2.83c12.82-2.32,22.45,2.39,30,12.6,1.8,2.43,4.5,4.21,6.46,6.87-13.81,1-27.29.46-40.71,1v2.37a38.41,38.41,0,0,0,4.5.56c14.32.06,28.64.13,43,.06,3.81,0,5.43,1.59,5.54,5.34a53.7,53.7,0,0,0,1.46,11.2c-.5,2.61-1.4,5.22-1.43,7.84-.15,13.17-.07,26.34-.07,39.5v5.64h-9.47c-.08-1.83-.22-3.59-.22-5.35,0-11.67-.08-23.33,0-35,0-3.17-1-4.51-4.32-4.42-6.66.19-13.33,0-20,.09a23.91,23.91,0,0,0-4.06.74l.05,1.66h25.23v24.82c0,5.16.21,10.34-.07,15.49-.21,3.82.82,5.67,5,5.17a66.38,66.38,0,0,1,7.53,0c.12,1.87.3,3.45.3,5,0,8.17.27,16.35-.13,24.49-.13,2.68-1.7,5.44-3.09,7.88-5.35,9.33-14.22,9.67-23.42,8.63-1.38-.16-2.8-1.34-3.92-2.36-3-2.8-6.67-3.11-9.31-.42s-2.84,6-.26,8.91,6.58,2.44,9.73-.35c1.43-1.26,3.54-1.79,5.41-2.48a5.32,5.32,0,0,1,2.48,0c8.21,1.25,15.06-.79,19.83-8a15.34,15.34,0,0,1,2.49-2.13v21.45l9.64.44v20.76c-11.72,0-23.17.05-34.62-.1-1,0-2-1.37-2.85-2.25-3-3.13-6.93-3.47-9.62-.57s-2.68,6,0,8.9,6.4,2.53,9.66-.55a8.36,8.36,0,0,1,4.85-2.27c5.81-.27,11.65-.11,18.22-.11,0,7.94,0,15.7,0,23.45a3.44,3.44,0,0,1-1,2.13c-5.26,5.34-10.51,10.7-16,15.85-.83.77-2.68.63-4,.61-4.1-.08-6.92,2.21-7.13,6a6.37,6.37,0,0,0,6.37,6.83c3.64,0,6-3,6.33-6.95a9.57,9.57,0,0,1,2.1-5.49c4.5-4.91,9.48-9.38,14-14.3a10.35,10.35,0,0,0,2.45-6c.3-7.12.11-14.26.11-22,3.72,0,7-.21,10.26.06,3.63.29,4.61-1.27,4.51-4.64-.2-6.29-.06-12.58-.06-19.14h28.92c0,8.35.1,16.63-.12,24.9,0,1.22-1.43,2.54-2.45,3.57-6.44,6.52-12.95,13-19.46,19.43-2.54,2.53-4.75,5.17-9,5.54-3.76.34-5.74,4.63-4.4,8.08s4,4.85,7.59,4.09a6,6,0,0,0,4.4-8.07c-1.23-2.78.07-3.92,1.62-5.47,7.09-7.06,14-14.29,21.28-21.14a11,11,0,0,0,3.7-9.22c-.22-7.13-.06-14.26-.06-21.69H218c0,7.9-.22,15.53.13,23.14a11.65,11.65,0,0,0,2.8,6.89c7,7.39,14.3,14.45,21.49,21.63,1.63,1.62,3.11,2.85,1.95,5.89-1.44,3.76.42,6.9,4.48,8.07a6.42,6.42,0,0,0,7.81-5.17c.61-3.51-1.91-6.54-5.7-7.56a13.73,13.73,0,0,1-5.88-2.94c-7.22-6.9-14.33-13.94-21.22-21.19a10.83,10.83,0,0,1-2.72-6.41c-.34-7.3-.13-14.62-.13-22.29h29v23.46h14.32c0,7.53-.24,14.48.13,21.39a12.64,12.64,0,0,0,2.84,6.92c3.41,4.07,7.4,7.66,11.08,11.51,2.65,2.77,5.78,4.9,5.19,9.92-.38,3.31,3.05,5.54,6.66,5.18s5.86-2.6,5.76-6.34-2.4-6.66-6.26-6.22c-3.59.42-5.59-1.08-7.6-3.4a13.11,13.11,0,0,0-2.5-2.44c-13.46-8.74-13.83-21.75-11.37-36.3,6.4,0,13.15-.1,19.9.11,1,0,2,1.43,2.82,2.32,2.85,3,6.47,3.28,9.29.71a6.51,6.51,0,0,0,.05-9.36c-2.73-2.57-6.42-2.25-9.31.59-1.07,1.05-2.5,2.41-3.79,2.43-11.13.2-22.27.12-33.79.12V489.82c9.62-1.36,9.62-1.36,9.62-11.35V467.72a14.65,14.65,0,0,1,2.36,2c4.67,6.95,11.14,9.29,19.31,8.14,3.54-.49,6.91-.43,9.69,3.2,2.16,2.83,5.91,2.22,8.44-.31s2.78-5.74.33-8.55-6.22-3.59-8.38-.95c-3.28,4-7.28,2.73-11.17,3.48-10.08,1.95-14.31-5.77-19.89-11.33a3.5,3.5,0,0,1-.65-2.3c0-10.64,0-21.28,0-32.52h12.19V383.39c8.71,0,16.79-.08,24.87.11.91,0,1.85,1.56,2.67,2.48,2.71,3.08,7.06,3.47,9.62.63s2.57-6.13,0-9a5.9,5.9,0,0,0-9.51.74c-1.41,2.18-2.71,2.44-5.06,2.36-7-.26-14,0-21-.16-3.56-.1-4.59,1.36-4.56,4.74.13,13.16.06,26.31.06,39.88h-9.29v-5c0-13.5.07-27-.07-40.5,0-2.28-1-4.55-1.29-6,.5-4.68,1.18-8.74,1.29-12.81.1-3.63,1.57-5.06,5.14-5,15,.06,30-.06,45,.06a6.49,6.49,0,0,1,4.27,1.94c3,3.27,7.19,3.88,10,1a6.54,6.54,0,0,0,0-9c-2.84-2.78-7.36-2.29-10,1.12a10.72,10.72,0,0,0-1,1.64h-42c7-7,13.07-13.26,19.33-19.31.78-.76,2.47-.76,3.74-.79,4.5-.09,9,.06,13.5-.07,3-.08,5.42-.22,7.59,3s6,2.86,8.73.06,2.79-6.13.07-8.92-6.65-3.27-8.72,0c-2.28,3.57-5.12,3.32-8,2.85-12.64-2-22.66,1.84-30,12.44a29.71,29.71,0,0,1-4.21,4.26c-3.31,3.09-7.09,5.07-11.2,7.18-11.38,5.81-22.83,1.58-34.1,2.88-.1,0-.22-.2-.86-.83,3.88-4,7.33-8.48,11.72-11.76,11.28-8.44,16-19.12,13.86-33.14-.33-2.12,1.3-5,2.8-6.86,2.57-3.24,5.75-6,8.71-8.94,2.51-2.5,4.52-5.19,9.13-4.5,3.86.58,7.75-5.63,7.77-11.14,0-14.16,0-28.33,0-42.49,0-7.73,1.36-9.08,9-9.08q25,0,50,0c7.22,0,8.68,1.5,8.69,8.9,0,14.16.11,28.33-.06,42.49,0,3.8,1.05,5.38,5.08,5.31q18-.29,36,0c3.89.05,5.23-1.25,5.17-5.2-.18-14.67-.09-29.33-.05-44,0-6.52,1-7.48,7.62-7.49q26,0,52,0c7,0,8.32,1.34,8.33,8.6,0,14.16.12,28.33-.06,42.49,0,3.94.9,5.71,5.25,5.62,11.66-.24,23.33-.22,35,0,4.45.08,5.7-1.66,5.64-5.92-.2-14.16-.1-28.33,0-42.5,0-7,1.25-8.26,8.09-8.27q25.5,0,51,0c6.27,0,8,1.63,8.07,8,.1,14.16.23,28.33-.05,42.5-.09,4.94,1.71,6.34,6.39,6.25,11.49-.24,23-.18,34.49,0,3.92.06,5.25-1.44,5.24-5.3q-.15-46.24,0-92.49c0-4-1.58-5.11-5.36-5.07-14.33.16-28.66.08-43,.05-6.63,0-8.42-1.72-8.42-8.22q0-82.24,0-164.49c0-6.37,1.95-8.44,8.31-8.47q25.49-.12,51,0c6.27,0,8.3,2.19,8.32,8.52,0,14.16.14,28.33-.05,42.5-.06,4.36,1,6.26,5.85,6.11,11.49-.33,23-.25,34.5,0,4.3.09,5.9-1.26,5.83-5.7-.21-14.49-.1-29-.05-43.49,0-6.1,1.62-7.87,7.63-7.91q25.76-.15,51.5,0c6.15,0,8,2,8.05,8.23.09,14.17.17,28.34,0,42.5-.06,4.63,1.22,6.56,6.22,6.41,11.16-.33,22.33-.29,33.49,0,4.75.11,6.48-1.38,6.39-6.25-.24-13.82-.11-27.66,0-41.49,0-7.84,1.6-9.39,9.38-9.41Q828.75,0,853,0c8,0,9.29,1.27,9.33,9.28q.42,81.5.81,163c0,8.07-1.14,9.22-9.25,9.2-12.83,0-25.66-.16-38.5-.14-10.79,0-9.43-1.27-9.43,9.14q0,184,0,368c0,4.33,0,8.67,0,13,0,4.75-2.44,7-7,7.21-1.33,0-2.66,0-4,0H522.39c-9.84,0-10.63-.77-10.63-10.46q0-65.74,0-131.49c0-7.1,0-7.15-7.3-7.11-17,.12-34,.43-51,.4-31.66,0-63.32-.27-95-.4-6.52,0-6.54,0-6.54,6.71q0,66.24,0,132.49c0,8.35-1.5,9.85-9.93,9.85q-137,0-274,0c-9.79,0-10.78-1-10.78-11V194.3c0-2.33-.19-4.69,0-7,.47-4.51-1.19-6.16-5.89-6.05-14.33.31-28.66.23-43,.26-7.45,0-8.38-.91-8.37-8.36q.12-82,.3-164C.31,2,2.2.08,9.55.05Q34.3,0,59.05.06C66.13.08,68,2,68,8.91c0,14.17.14,28.33-.07,42.5-.06,4.25,1.12,5.9,5.63,5.79q17.49-.42,35,0c4.53.11,5.68-1.6,5.62-5.83-.2-14.33-.09-28.67-.06-43,0-6.36,1.65-8.25,7.83-8.28q25.74-.16,51.49,0c6,0,8.14,2.2,8.19,8.22.09,14.16.24,28.33-.06,42.49-.11,5.15,1.65,6.58,6.63,6.43,11.16-.33,22.33-.27,33.49,0,4.5.09,6.2-1.29,6.12-6-.24-14.16-.12-28.33-.07-42.49,0-7.09,1.5-8.62,8.49-8.65q25.25-.1,50.5,0c6.51,0,8.28,1.82,8.29,8.47Q295,90.77,295,173c0,6.56-1.81,8.23-8.38,8.24-14.33,0-28.66.12-43-.05-3.93,0-5.58.82-5.56,5.21q.25,46.23,0,92.47c0,3.95,1.25,5.3,5.15,5.19,7.33-.21,14.67-.14,22,0,1.4,0,2.78,1.14,4.17,1.75-.61,1.37-.91,3-1.87,4.06-3.85,4.16-8.17,7.9-11.77,12.25-1.72,2.07-3.42,5.33-3.07,7.76,1.95,13.43-2.44,23.73-13.27,31.87-4.61,3.47-8.23,8.24-12.47,12.24C225.64,355.27,223.79,355.91,220.92,357.54ZM70.09,348c-3.75.09-6.81,3.06-6.53,6.37.31,3.76,2.35,6.12,6.33,6.25a6.22,6.22,0,0,0,6.46-6.6C76,350.24,73.69,348.17,70.09,348ZM84.3,388.46c4.28-.06,7-2.83,7.06-6.31s-3.26-6.78-6.76-6.43c-3.89.39-6.18,2.89-6,6.62S81,388.41,84.3,388.46Z"/><rect x="58.05" y="283.94" width="280.31" height="291.69"/><rect x="88.06" y="226.61" width="80.08" height="80.08"/></g></g></svg>